<mxfile host="app.diagrams.net" agent="Mozilla/5.0 (X11; Linux x86_64; rv:136.0) Gecko/20100101 Firefox/136.0" version="26.1.0">
  <diagram id="C5RBs43oDa-KdzZeNtuy" name="Page-1">
    <mxGraphModel dx="2261" dy="748" grid="1" gridSize="10" guides="1" tooltips="1" connect="1" arrows="1" fold="1" page="1" pageScale="1" pageWidth="827" pageHeight="1169" math="0" shadow="0">
      <root>
        <mxCell id="WIyWlLk6GJQsqaUBKTNV-0" />
        <mxCell id="WIyWlLk6GJQsqaUBKTNV-1" parent="WIyWlLk6GJQsqaUBKTNV-0" />
        <mxCell id="_py4UkBO7gYFsBw7f4LY-0" value="&lt;u&gt;&lt;b&gt;Id&lt;/b&gt;&lt;/u&gt;" style="ellipse;whiteSpace=wrap;html=1;" parent="WIyWlLk6GJQsqaUBKTNV-1" vertex="1">
          <mxGeometry x="-20" y="430" width="90" height="35" as="geometry" />
        </mxCell>
        <mxCell id="Ak_wFlDR8z4ldmzF6ij--53" value="Session" style="rounded=0;whiteSpace=wrap;html=1;" parent="WIyWlLk6GJQsqaUBKTNV-1" vertex="1">
          <mxGeometry x="470" y="662.5" width="140" height="57.5" as="geometry" />
        </mxCell>
        <mxCell id="nEtOkZ7gd0ag-XSUoiwr-135" value="" style="endArrow=none;html=1;rounded=0;entryX=1;entryY=0.5;entryDx=0;entryDy=0;exitX=0.5;exitY=1;exitDx=0;exitDy=0;" parent="WIyWlLk6GJQsqaUBKTNV-1" source="nEtOkZ7gd0ag-XSUoiwr-59" target="nEtOkZ7gd0ag-XSUoiwr-71" edge="1">
          <mxGeometry width="50" height="50" relative="1" as="geometry">
            <mxPoint x="160" y="1340" as="sourcePoint" />
            <mxPoint x="210" y="1290" as="targetPoint" />
          </mxGeometry>
        </mxCell>
        <mxCell id="nEtOkZ7gd0ag-XSUoiwr-0" value="Location" style="rounded=0;whiteSpace=wrap;html=1;" parent="WIyWlLk6GJQsqaUBKTNV-1" vertex="1">
          <mxGeometry x="120" y="670" width="120" height="40" as="geometry" />
        </mxCell>
        <mxCell id="nEtOkZ7gd0ag-XSUoiwr-2" value="name" style="ellipse;whiteSpace=wrap;html=1;" parent="WIyWlLk6GJQsqaUBKTNV-1" vertex="1">
          <mxGeometry x="-20" y="515" width="90" height="35" as="geometry" />
        </mxCell>
        <mxCell id="nEtOkZ7gd0ag-XSUoiwr-3" value="address" style="ellipse;whiteSpace=wrap;html=1;" parent="WIyWlLk6GJQsqaUBKTNV-1" vertex="1">
          <mxGeometry x="-20" y="660" width="90" height="35" as="geometry" />
        </mxCell>
        <mxCell id="nEtOkZ7gd0ag-XSUoiwr-4" value="city" style="ellipse;whiteSpace=wrap;html=1;" parent="WIyWlLk6GJQsqaUBKTNV-1" vertex="1">
          <mxGeometry x="-20" y="700" width="90" height="35" as="geometry" />
        </mxCell>
        <mxCell id="nEtOkZ7gd0ag-XSUoiwr-5" value="province" style="ellipse;whiteSpace=wrap;html=1;" parent="WIyWlLk6GJQsqaUBKTNV-1" vertex="1">
          <mxGeometry x="-20" y="610" width="90" height="35" as="geometry" />
        </mxCell>
        <mxCell id="nEtOkZ7gd0ag-XSUoiwr-6" value="postal code" style="ellipse;whiteSpace=wrap;html=1;" parent="WIyWlLk6GJQsqaUBKTNV-1" vertex="1">
          <mxGeometry x="-20" y="560" width="90" height="35" as="geometry" />
        </mxCell>
        <mxCell id="nEtOkZ7gd0ag-XSUoiwr-9" value="web address" style="ellipse;whiteSpace=wrap;html=1;" parent="WIyWlLk6GJQsqaUBKTNV-1" vertex="1">
          <mxGeometry x="-20" y="751.25" width="90" height="35" as="geometry" />
        </mxCell>
        <mxCell id="nEtOkZ7gd0ag-XSUoiwr-10" value="max capacity" style="ellipse;whiteSpace=wrap;html=1;" parent="WIyWlLk6GJQsqaUBKTNV-1" vertex="1">
          <mxGeometry x="-20" y="800" width="90" height="35" as="geometry" />
        </mxCell>
        <mxCell id="nEtOkZ7gd0ag-XSUoiwr-11" value="" style="endArrow=none;html=1;rounded=0;entryX=0.5;entryY=0;entryDx=0;entryDy=0;exitX=1.012;exitY=0.608;exitDx=0;exitDy=0;exitPerimeter=0;" parent="WIyWlLk6GJQsqaUBKTNV-1" source="Ak_wFlDR8z4ldmzF6ij--70" target="nEtOkZ7gd0ag-XSUoiwr-0" edge="1">
          <mxGeometry width="50" height="50" relative="1" as="geometry">
            <mxPoint x="130" y="540" as="sourcePoint" />
            <mxPoint x="180" y="490" as="targetPoint" />
          </mxGeometry>
        </mxCell>
        <mxCell id="nEtOkZ7gd0ag-XSUoiwr-12" value="" style="endArrow=none;html=1;rounded=0;entryX=1;entryY=0.5;entryDx=0;entryDy=0;exitX=0.25;exitY=0;exitDx=0;exitDy=0;" parent="WIyWlLk6GJQsqaUBKTNV-1" source="nEtOkZ7gd0ag-XSUoiwr-0" target="nEtOkZ7gd0ag-XSUoiwr-2" edge="1">
          <mxGeometry width="50" height="50" relative="1" as="geometry">
            <mxPoint x="90" y="660" as="sourcePoint" />
            <mxPoint x="140" y="610" as="targetPoint" />
          </mxGeometry>
        </mxCell>
        <mxCell id="nEtOkZ7gd0ag-XSUoiwr-13" value="" style="endArrow=none;html=1;rounded=0;entryX=1;entryY=0.5;entryDx=0;entryDy=0;exitX=0;exitY=0.25;exitDx=0;exitDy=0;" parent="WIyWlLk6GJQsqaUBKTNV-1" source="nEtOkZ7gd0ag-XSUoiwr-0" target="nEtOkZ7gd0ag-XSUoiwr-6" edge="1">
          <mxGeometry width="50" height="50" relative="1" as="geometry">
            <mxPoint x="90" y="790" as="sourcePoint" />
            <mxPoint x="140" y="740" as="targetPoint" />
          </mxGeometry>
        </mxCell>
        <mxCell id="nEtOkZ7gd0ag-XSUoiwr-14" value="" style="endArrow=none;html=1;rounded=0;entryX=1;entryY=0.5;entryDx=0;entryDy=0;exitX=0;exitY=0.5;exitDx=0;exitDy=0;" parent="WIyWlLk6GJQsqaUBKTNV-1" source="nEtOkZ7gd0ag-XSUoiwr-0" target="nEtOkZ7gd0ag-XSUoiwr-5" edge="1">
          <mxGeometry width="50" height="50" relative="1" as="geometry">
            <mxPoint x="100" y="780" as="sourcePoint" />
            <mxPoint x="150" y="730" as="targetPoint" />
          </mxGeometry>
        </mxCell>
        <mxCell id="nEtOkZ7gd0ag-XSUoiwr-15" value="" style="endArrow=none;html=1;rounded=0;entryX=1;entryY=0.5;entryDx=0;entryDy=0;exitX=0;exitY=0.5;exitDx=0;exitDy=0;" parent="WIyWlLk6GJQsqaUBKTNV-1" source="nEtOkZ7gd0ag-XSUoiwr-0" target="nEtOkZ7gd0ag-XSUoiwr-3" edge="1">
          <mxGeometry width="50" height="50" relative="1" as="geometry">
            <mxPoint x="140" y="770" as="sourcePoint" />
            <mxPoint x="190" y="720" as="targetPoint" />
          </mxGeometry>
        </mxCell>
        <mxCell id="nEtOkZ7gd0ag-XSUoiwr-16" value="" style="endArrow=none;html=1;rounded=0;entryX=0;entryY=0.5;entryDx=0;entryDy=0;exitX=1;exitY=0.5;exitDx=0;exitDy=0;" parent="WIyWlLk6GJQsqaUBKTNV-1" source="nEtOkZ7gd0ag-XSUoiwr-4" target="nEtOkZ7gd0ag-XSUoiwr-0" edge="1">
          <mxGeometry width="50" height="50" relative="1" as="geometry">
            <mxPoint x="60" y="770" as="sourcePoint" />
            <mxPoint x="110" y="720" as="targetPoint" />
          </mxGeometry>
        </mxCell>
        <mxCell id="nEtOkZ7gd0ag-XSUoiwr-20" value="" style="endArrow=none;html=1;rounded=0;entryX=0.25;entryY=1;entryDx=0;entryDy=0;exitX=1;exitY=0.5;exitDx=0;exitDy=0;" parent="WIyWlLk6GJQsqaUBKTNV-1" source="nEtOkZ7gd0ag-XSUoiwr-9" target="nEtOkZ7gd0ag-XSUoiwr-0" edge="1">
          <mxGeometry width="50" height="50" relative="1" as="geometry">
            <mxPoint x="150" y="810" as="sourcePoint" />
            <mxPoint x="200" y="760" as="targetPoint" />
          </mxGeometry>
        </mxCell>
        <mxCell id="nEtOkZ7gd0ag-XSUoiwr-21" value="" style="endArrow=none;html=1;rounded=0;entryX=0.5;entryY=1;entryDx=0;entryDy=0;exitX=1;exitY=0.5;exitDx=0;exitDy=0;" parent="WIyWlLk6GJQsqaUBKTNV-1" source="nEtOkZ7gd0ag-XSUoiwr-10" target="nEtOkZ7gd0ag-XSUoiwr-0" edge="1">
          <mxGeometry width="50" height="50" relative="1" as="geometry">
            <mxPoint x="150" y="810" as="sourcePoint" />
            <mxPoint x="200" y="760" as="targetPoint" />
          </mxGeometry>
        </mxCell>
        <mxCell id="nEtOkZ7gd0ag-XSUoiwr-23" value="Personnel" style="rounded=0;whiteSpace=wrap;html=1;" parent="WIyWlLk6GJQsqaUBKTNV-1" vertex="1">
          <mxGeometry x="520" y="380" width="120" height="40" as="geometry" />
        </mxCell>
        <mxCell id="nEtOkZ7gd0ag-XSUoiwr-24" value="first name" style="ellipse;whiteSpace=wrap;html=1;" parent="WIyWlLk6GJQsqaUBKTNV-1" vertex="1">
          <mxGeometry x="660" y="120" width="90" height="35" as="geometry" />
        </mxCell>
        <mxCell id="nEtOkZ7gd0ag-XSUoiwr-25" value="last name" style="ellipse;whiteSpace=wrap;html=1;" parent="WIyWlLk6GJQsqaUBKTNV-1" vertex="1">
          <mxGeometry x="660" y="165" width="90" height="35" as="geometry" />
        </mxCell>
        <mxCell id="nEtOkZ7gd0ag-XSUoiwr-26" value="birth date" style="ellipse;whiteSpace=wrap;html=1;" parent="WIyWlLk6GJQsqaUBKTNV-1" vertex="1">
          <mxGeometry x="660" y="210" width="90" height="35" as="geometry" />
        </mxCell>
        <mxCell id="nEtOkZ7gd0ag-XSUoiwr-27" value="SIN" style="ellipse;whiteSpace=wrap;html=1;" parent="WIyWlLk6GJQsqaUBKTNV-1" vertex="1">
          <mxGeometry x="660" y="255" width="90" height="35" as="geometry" />
        </mxCell>
        <mxCell id="nEtOkZ7gd0ag-XSUoiwr-28" value="Medicare Number" style="ellipse;whiteSpace=wrap;html=1;" parent="WIyWlLk6GJQsqaUBKTNV-1" vertex="1">
          <mxGeometry x="660" y="305" width="90" height="35" as="geometry" />
        </mxCell>
        <mxCell id="nEtOkZ7gd0ag-XSUoiwr-29" value="phone number" style="ellipse;whiteSpace=wrap;html=1;" parent="WIyWlLk6GJQsqaUBKTNV-1" vertex="1">
          <mxGeometry x="660" y="350" width="90" height="35" as="geometry" />
        </mxCell>
        <mxCell id="nEtOkZ7gd0ag-XSUoiwr-30" value="city" style="ellipse;whiteSpace=wrap;html=1;" parent="WIyWlLk6GJQsqaUBKTNV-1" vertex="1">
          <mxGeometry x="660" y="395" width="90" height="35" as="geometry" />
        </mxCell>
        <mxCell id="nEtOkZ7gd0ag-XSUoiwr-32" value="province" style="ellipse;whiteSpace=wrap;html=1;" parent="WIyWlLk6GJQsqaUBKTNV-1" vertex="1">
          <mxGeometry x="660" y="440" width="90" height="35" as="geometry" />
        </mxCell>
        <mxCell id="nEtOkZ7gd0ag-XSUoiwr-33" value="postal code" style="ellipse;whiteSpace=wrap;html=1;" parent="WIyWlLk6GJQsqaUBKTNV-1" vertex="1">
          <mxGeometry x="660" y="490" width="90" height="35" as="geometry" />
        </mxCell>
        <mxCell id="nEtOkZ7gd0ag-XSUoiwr-34" value="email address" style="ellipse;whiteSpace=wrap;html=1;" parent="WIyWlLk6GJQsqaUBKTNV-1" vertex="1">
          <mxGeometry x="660" y="530" width="90" height="35" as="geometry" />
        </mxCell>
        <mxCell id="nEtOkZ7gd0ag-XSUoiwr-36" value="mandate" style="ellipse;whiteSpace=wrap;html=1;" parent="WIyWlLk6GJQsqaUBKTNV-1" vertex="1">
          <mxGeometry x="660" y="580" width="90" height="35" as="geometry" />
        </mxCell>
        <mxCell id="nEtOkZ7gd0ag-XSUoiwr-37" value="" style="endArrow=none;html=1;rounded=0;entryX=0;entryY=0.5;entryDx=0;entryDy=0;exitX=0.5;exitY=0;exitDx=0;exitDy=0;" parent="WIyWlLk6GJQsqaUBKTNV-1" source="nEtOkZ7gd0ag-XSUoiwr-23" target="nEtOkZ7gd0ag-XSUoiwr-24" edge="1">
          <mxGeometry width="50" height="50" relative="1" as="geometry">
            <mxPoint x="610" y="200" as="sourcePoint" />
            <mxPoint x="660" y="150" as="targetPoint" />
          </mxGeometry>
        </mxCell>
        <mxCell id="nEtOkZ7gd0ag-XSUoiwr-38" value="" style="endArrow=none;html=1;rounded=0;entryX=0.5;entryY=1;entryDx=0;entryDy=0;exitX=0;exitY=0.5;exitDx=0;exitDy=0;" parent="WIyWlLk6GJQsqaUBKTNV-1" source="nEtOkZ7gd0ag-XSUoiwr-36" target="nEtOkZ7gd0ag-XSUoiwr-23" edge="1">
          <mxGeometry width="50" height="50" relative="1" as="geometry">
            <mxPoint x="530" y="490" as="sourcePoint" />
            <mxPoint x="580" y="440" as="targetPoint" />
          </mxGeometry>
        </mxCell>
        <mxCell id="nEtOkZ7gd0ag-XSUoiwr-39" value="" style="endArrow=none;html=1;rounded=0;entryX=0;entryY=0.5;entryDx=0;entryDy=0;exitX=0.75;exitY=0;exitDx=0;exitDy=0;" parent="WIyWlLk6GJQsqaUBKTNV-1" source="nEtOkZ7gd0ag-XSUoiwr-23" target="nEtOkZ7gd0ag-XSUoiwr-25" edge="1">
          <mxGeometry width="50" height="50" relative="1" as="geometry">
            <mxPoint x="610" y="340" as="sourcePoint" />
            <mxPoint x="660" y="290" as="targetPoint" />
          </mxGeometry>
        </mxCell>
        <mxCell id="nEtOkZ7gd0ag-XSUoiwr-41" value="" style="endArrow=none;html=1;rounded=0;entryX=0;entryY=0.5;entryDx=0;entryDy=0;exitX=0.75;exitY=1;exitDx=0;exitDy=0;" parent="WIyWlLk6GJQsqaUBKTNV-1" source="nEtOkZ7gd0ag-XSUoiwr-23" target="nEtOkZ7gd0ag-XSUoiwr-34" edge="1">
          <mxGeometry width="50" height="50" relative="1" as="geometry">
            <mxPoint x="470" y="580" as="sourcePoint" />
            <mxPoint x="520" y="530" as="targetPoint" />
          </mxGeometry>
        </mxCell>
        <mxCell id="nEtOkZ7gd0ag-XSUoiwr-42" value="" style="endArrow=none;html=1;rounded=0;entryX=0;entryY=0.5;entryDx=0;entryDy=0;exitX=0.75;exitY=0;exitDx=0;exitDy=0;" parent="WIyWlLk6GJQsqaUBKTNV-1" source="nEtOkZ7gd0ag-XSUoiwr-23" target="nEtOkZ7gd0ag-XSUoiwr-26" edge="1">
          <mxGeometry width="50" height="50" relative="1" as="geometry">
            <mxPoint x="510" y="290" as="sourcePoint" />
            <mxPoint x="560" y="240" as="targetPoint" />
          </mxGeometry>
        </mxCell>
        <mxCell id="nEtOkZ7gd0ag-XSUoiwr-43" value="" style="endArrow=none;html=1;rounded=0;entryX=0;entryY=0.5;entryDx=0;entryDy=0;exitX=1;exitY=0;exitDx=0;exitDy=0;" parent="WIyWlLk6GJQsqaUBKTNV-1" target="nEtOkZ7gd0ag-XSUoiwr-27" edge="1">
          <mxGeometry width="50" height="50" relative="1" as="geometry">
            <mxPoint x="640" y="390" as="sourcePoint" />
            <mxPoint x="560" y="330" as="targetPoint" />
          </mxGeometry>
        </mxCell>
        <mxCell id="nEtOkZ7gd0ag-XSUoiwr-44" value="" style="endArrow=none;html=1;rounded=0;entryX=1;entryY=1;entryDx=0;entryDy=0;exitX=0;exitY=0.5;exitDx=0;exitDy=0;" parent="WIyWlLk6GJQsqaUBKTNV-1" source="nEtOkZ7gd0ag-XSUoiwr-33" target="nEtOkZ7gd0ag-XSUoiwr-23" edge="1">
          <mxGeometry width="50" height="50" relative="1" as="geometry">
            <mxPoint x="510" y="580" as="sourcePoint" />
            <mxPoint x="640" y="430" as="targetPoint" />
          </mxGeometry>
        </mxCell>
        <mxCell id="nEtOkZ7gd0ag-XSUoiwr-45" value="" style="endArrow=none;html=1;rounded=0;entryX=0;entryY=0.5;entryDx=0;entryDy=0;exitX=1;exitY=0;exitDx=0;exitDy=0;" parent="WIyWlLk6GJQsqaUBKTNV-1" target="nEtOkZ7gd0ag-XSUoiwr-28" edge="1">
          <mxGeometry width="50" height="50" relative="1" as="geometry">
            <mxPoint x="640" y="390" as="sourcePoint" />
            <mxPoint x="840" y="380" as="targetPoint" />
          </mxGeometry>
        </mxCell>
        <mxCell id="nEtOkZ7gd0ag-XSUoiwr-46" value="" style="endArrow=none;html=1;rounded=0;entryX=0;entryY=0.5;entryDx=0;entryDy=0;exitX=1;exitY=1;exitDx=0;exitDy=0;" parent="WIyWlLk6GJQsqaUBKTNV-1" source="nEtOkZ7gd0ag-XSUoiwr-23" target="nEtOkZ7gd0ag-XSUoiwr-32" edge="1">
          <mxGeometry width="50" height="50" relative="1" as="geometry">
            <mxPoint x="640" y="430" as="sourcePoint" />
            <mxPoint x="540" y="520" as="targetPoint" />
          </mxGeometry>
        </mxCell>
        <mxCell id="nEtOkZ7gd0ag-XSUoiwr-47" value="" style="endArrow=none;html=1;rounded=0;entryX=0;entryY=0.5;entryDx=0;entryDy=0;exitX=1;exitY=0.5;exitDx=0;exitDy=0;" parent="WIyWlLk6GJQsqaUBKTNV-1" source="nEtOkZ7gd0ag-XSUoiwr-23" target="nEtOkZ7gd0ag-XSUoiwr-29" edge="1">
          <mxGeometry width="50" height="50" relative="1" as="geometry">
            <mxPoint x="630" y="410" as="sourcePoint" />
            <mxPoint x="680" y="360" as="targetPoint" />
          </mxGeometry>
        </mxCell>
        <mxCell id="nEtOkZ7gd0ag-XSUoiwr-49" value="" style="endArrow=none;html=1;rounded=0;entryX=0;entryY=0.5;entryDx=0;entryDy=0;exitX=1;exitY=0.5;exitDx=0;exitDy=0;" parent="WIyWlLk6GJQsqaUBKTNV-1" source="nEtOkZ7gd0ag-XSUoiwr-23" target="nEtOkZ7gd0ag-XSUoiwr-30" edge="1">
          <mxGeometry width="50" height="50" relative="1" as="geometry">
            <mxPoint x="550" y="510" as="sourcePoint" />
            <mxPoint x="600" y="460" as="targetPoint" />
          </mxGeometry>
        </mxCell>
        <mxCell id="nEtOkZ7gd0ag-XSUoiwr-50" value="Operates" style="rhombus;whiteSpace=wrap;html=1;" parent="WIyWlLk6GJQsqaUBKTNV-1" vertex="1">
          <mxGeometry x="172.5" y="370" width="90" height="50" as="geometry" />
        </mxCell>
        <mxCell id="nEtOkZ7gd0ag-XSUoiwr-51" value="" style="endArrow=none;html=1;rounded=0;exitX=0.75;exitY=0;exitDx=0;exitDy=0;" parent="WIyWlLk6GJQsqaUBKTNV-1" source="nEtOkZ7gd0ag-XSUoiwr-0" target="nEtOkZ7gd0ag-XSUoiwr-50" edge="1">
          <mxGeometry width="50" height="50" relative="1" as="geometry">
            <mxPoint x="240" y="800" as="sourcePoint" />
            <mxPoint x="290" y="750" as="targetPoint" />
          </mxGeometry>
        </mxCell>
        <mxCell id="nEtOkZ7gd0ag-XSUoiwr-52" value="" style="endArrow=none;html=1;rounded=0;entryX=0;entryY=0.5;entryDx=0;entryDy=0;exitX=1;exitY=0.5;exitDx=0;exitDy=0;" parent="WIyWlLk6GJQsqaUBKTNV-1" source="nEtOkZ7gd0ag-XSUoiwr-50" target="nEtOkZ7gd0ag-XSUoiwr-23" edge="1">
          <mxGeometry width="50" height="50" relative="1" as="geometry">
            <mxPoint x="380" y="750" as="sourcePoint" />
            <mxPoint x="430" y="700" as="targetPoint" />
          </mxGeometry>
        </mxCell>
        <mxCell id="nEtOkZ7gd0ag-XSUoiwr-53" value="" style="endArrow=none;html=1;rounded=0;" parent="WIyWlLk6GJQsqaUBKTNV-1" source="nEtOkZ7gd0ag-XSUoiwr-54" target="nEtOkZ7gd0ag-XSUoiwr-50" edge="1">
          <mxGeometry width="50" height="50" relative="1" as="geometry">
            <mxPoint x="12.5" y="412.5" as="sourcePoint" />
            <mxPoint x="12.5" y="377.5" as="targetPoint" />
          </mxGeometry>
        </mxCell>
        <mxCell id="nEtOkZ7gd0ag-XSUoiwr-54" value="role" style="ellipse;whiteSpace=wrap;html=1;" parent="WIyWlLk6GJQsqaUBKTNV-1" vertex="1">
          <mxGeometry x="47.5" y="377.5" width="90" height="35" as="geometry" />
        </mxCell>
        <mxCell id="nEtOkZ7gd0ag-XSUoiwr-55" value="end date" style="ellipse;whiteSpace=wrap;html=1;" parent="WIyWlLk6GJQsqaUBKTNV-1" vertex="1">
          <mxGeometry x="122.5" y="325" width="90" height="35" as="geometry" />
        </mxCell>
        <mxCell id="nEtOkZ7gd0ag-XSUoiwr-56" value="&lt;b&gt;&lt;u&gt;start date&lt;/u&gt;&lt;/b&gt;" style="ellipse;whiteSpace=wrap;html=1;" parent="WIyWlLk6GJQsqaUBKTNV-1" vertex="1">
          <mxGeometry x="222.5" y="325" width="90" height="35" as="geometry" />
        </mxCell>
        <mxCell id="nEtOkZ7gd0ag-XSUoiwr-57" value="" style="endArrow=none;html=1;rounded=0;entryX=0.5;entryY=1;entryDx=0;entryDy=0;exitX=0;exitY=0;exitDx=0;exitDy=0;" parent="WIyWlLk6GJQsqaUBKTNV-1" source="nEtOkZ7gd0ag-XSUoiwr-50" target="nEtOkZ7gd0ag-XSUoiwr-55" edge="1">
          <mxGeometry width="50" height="50" relative="1" as="geometry">
            <mxPoint x="122.5" y="415" as="sourcePoint" />
            <mxPoint x="172.5" y="365" as="targetPoint" />
          </mxGeometry>
        </mxCell>
        <mxCell id="nEtOkZ7gd0ag-XSUoiwr-58" value="" style="endArrow=none;html=1;rounded=0;entryX=0.5;entryY=1;entryDx=0;entryDy=0;exitX=1;exitY=0;exitDx=0;exitDy=0;" parent="WIyWlLk6GJQsqaUBKTNV-1" source="nEtOkZ7gd0ag-XSUoiwr-50" target="nEtOkZ7gd0ag-XSUoiwr-56" edge="1">
          <mxGeometry width="50" height="50" relative="1" as="geometry">
            <mxPoint x="292.5" y="535" as="sourcePoint" />
            <mxPoint x="342.5" y="485" as="targetPoint" />
          </mxGeometry>
        </mxCell>
        <mxCell id="nEtOkZ7gd0ag-XSUoiwr-59" value="Family Member" style="rounded=0;whiteSpace=wrap;html=1;" parent="WIyWlLk6GJQsqaUBKTNV-1" vertex="1">
          <mxGeometry x="120" y="1079" width="120" height="40" as="geometry" />
        </mxCell>
        <mxCell id="nEtOkZ7gd0ag-XSUoiwr-62" value="first name" style="ellipse;whiteSpace=wrap;html=1;" parent="WIyWlLk6GJQsqaUBKTNV-1" vertex="1">
          <mxGeometry x="-20" y="1050" width="90" height="35" as="geometry" />
        </mxCell>
        <mxCell id="nEtOkZ7gd0ag-XSUoiwr-64" value="last name" style="ellipse;whiteSpace=wrap;html=1;" parent="WIyWlLk6GJQsqaUBKTNV-1" vertex="1">
          <mxGeometry x="-20" y="1092.5" width="90" height="35" as="geometry" />
        </mxCell>
        <mxCell id="nEtOkZ7gd0ag-XSUoiwr-65" value="birth date" style="ellipse;whiteSpace=wrap;html=1;" parent="WIyWlLk6GJQsqaUBKTNV-1" vertex="1">
          <mxGeometry x="-20" y="1134" width="90" height="35" as="geometry" />
        </mxCell>
        <mxCell id="nEtOkZ7gd0ag-XSUoiwr-66" value="SIN" style="ellipse;whiteSpace=wrap;html=1;" parent="WIyWlLk6GJQsqaUBKTNV-1" vertex="1">
          <mxGeometry x="-20" y="1180" width="90" height="35" as="geometry" />
        </mxCell>
        <mxCell id="nEtOkZ7gd0ag-XSUoiwr-67" value="Medicare Number" style="ellipse;whiteSpace=wrap;html=1;" parent="WIyWlLk6GJQsqaUBKTNV-1" vertex="1">
          <mxGeometry x="-20" y="1270" width="90" height="35" as="geometry" />
        </mxCell>
        <mxCell id="nEtOkZ7gd0ag-XSUoiwr-68" value="phone number" style="ellipse;whiteSpace=wrap;html=1;" parent="WIyWlLk6GJQsqaUBKTNV-1" vertex="1">
          <mxGeometry x="-20" y="1390" width="90" height="35" as="geometry" />
        </mxCell>
        <mxCell id="nEtOkZ7gd0ag-XSUoiwr-69" value="city" style="ellipse;whiteSpace=wrap;html=1;" parent="WIyWlLk6GJQsqaUBKTNV-1" vertex="1">
          <mxGeometry x="-20" y="1220" width="90" height="35" as="geometry" />
        </mxCell>
        <mxCell id="nEtOkZ7gd0ag-XSUoiwr-70" value="province" style="ellipse;whiteSpace=wrap;html=1;" parent="WIyWlLk6GJQsqaUBKTNV-1" vertex="1">
          <mxGeometry x="-20" y="1310" width="90" height="35" as="geometry" />
        </mxCell>
        <mxCell id="nEtOkZ7gd0ag-XSUoiwr-71" value="postal code" style="ellipse;whiteSpace=wrap;html=1;" parent="WIyWlLk6GJQsqaUBKTNV-1" vertex="1">
          <mxGeometry x="-20" y="1430" width="90" height="35" as="geometry" />
        </mxCell>
        <mxCell id="nEtOkZ7gd0ag-XSUoiwr-72" value="email address" style="ellipse;whiteSpace=wrap;html=1;" parent="WIyWlLk6GJQsqaUBKTNV-1" vertex="1">
          <mxGeometry x="-20" y="1350" width="90" height="35" as="geometry" />
        </mxCell>
        <mxCell id="nEtOkZ7gd0ag-XSUoiwr-81" value="Associated" style="rhombus;whiteSpace=wrap;html=1;" parent="WIyWlLk6GJQsqaUBKTNV-1" vertex="1">
          <mxGeometry x="135" y="885" width="90" height="50" as="geometry" />
        </mxCell>
        <mxCell id="nEtOkZ7gd0ag-XSUoiwr-82" value="" style="endArrow=none;html=1;rounded=0;entryX=0.5;entryY=1;entryDx=0;entryDy=0;exitX=0.5;exitY=0;exitDx=0;exitDy=0;" parent="WIyWlLk6GJQsqaUBKTNV-1" source="nEtOkZ7gd0ag-XSUoiwr-59" target="nEtOkZ7gd0ag-XSUoiwr-81" edge="1">
          <mxGeometry width="50" height="50" relative="1" as="geometry">
            <mxPoint x="220" y="1030" as="sourcePoint" />
            <mxPoint x="270" y="980" as="targetPoint" />
          </mxGeometry>
        </mxCell>
        <mxCell id="nEtOkZ7gd0ag-XSUoiwr-83" value="" style="endArrow=none;html=1;rounded=0;entryX=0.5;entryY=1;entryDx=0;entryDy=0;exitX=0.5;exitY=0;exitDx=0;exitDy=0;" parent="WIyWlLk6GJQsqaUBKTNV-1" source="nEtOkZ7gd0ag-XSUoiwr-81" target="nEtOkZ7gd0ag-XSUoiwr-0" edge="1">
          <mxGeometry width="50" height="50" relative="1" as="geometry">
            <mxPoint x="160" y="780" as="sourcePoint" />
            <mxPoint x="210" y="730" as="targetPoint" />
          </mxGeometry>
        </mxCell>
        <mxCell id="nEtOkZ7gd0ag-XSUoiwr-93" value="" style="rounded=0;whiteSpace=wrap;html=1;" parent="WIyWlLk6GJQsqaUBKTNV-1" vertex="1">
          <mxGeometry x="430" y="1065.75" width="140" height="50" as="geometry" />
        </mxCell>
        <mxCell id="nEtOkZ7gd0ag-XSUoiwr-94" value="Secondary Family Member" style="rounded=0;whiteSpace=wrap;html=1;" parent="WIyWlLk6GJQsqaUBKTNV-1" vertex="1">
          <mxGeometry x="440" y="1072" width="120" height="37.5" as="geometry" />
        </mxCell>
        <mxCell id="nEtOkZ7gd0ag-XSUoiwr-98" style="edgeStyle=orthogonalEdgeStyle;rounded=0;orthogonalLoop=1;jettySize=auto;html=1;exitX=1;exitY=0.5;exitDx=0;exitDy=0;entryX=0;entryY=0.5;entryDx=0;entryDy=0;" parent="WIyWlLk6GJQsqaUBKTNV-1" source="nEtOkZ7gd0ag-XSUoiwr-95" target="nEtOkZ7gd0ag-XSUoiwr-93" edge="1">
          <mxGeometry relative="1" as="geometry" />
        </mxCell>
        <mxCell id="nEtOkZ7gd0ag-XSUoiwr-148" style="edgeStyle=orthogonalEdgeStyle;rounded=0;orthogonalLoop=1;jettySize=auto;html=1;exitX=0;exitY=0.5;exitDx=0;exitDy=0;entryX=1;entryY=0.25;entryDx=0;entryDy=0;" parent="WIyWlLk6GJQsqaUBKTNV-1" source="nEtOkZ7gd0ag-XSUoiwr-95" target="nEtOkZ7gd0ag-XSUoiwr-59" edge="1">
          <mxGeometry relative="1" as="geometry" />
        </mxCell>
        <mxCell id="nEtOkZ7gd0ag-XSUoiwr-95" value="" style="rhombus;whiteSpace=wrap;html=1;" parent="WIyWlLk6GJQsqaUBKTNV-1" vertex="1">
          <mxGeometry x="280" y="1062.5" width="100" height="60" as="geometry" />
        </mxCell>
        <mxCell id="nEtOkZ7gd0ag-XSUoiwr-96" value="designates" style="rhombus;whiteSpace=wrap;html=1;" parent="WIyWlLk6GJQsqaUBKTNV-1" vertex="1">
          <mxGeometry x="285" y="1067.5" width="90" height="50" as="geometry" />
        </mxCell>
        <mxCell id="nEtOkZ7gd0ag-XSUoiwr-100" value="&lt;u&gt;first name&lt;/u&gt;" style="ellipse;whiteSpace=wrap;html=1;" parent="WIyWlLk6GJQsqaUBKTNV-1" vertex="1">
          <mxGeometry x="400" y="1021.75" width="90" height="35" as="geometry" />
        </mxCell>
        <mxCell id="nEtOkZ7gd0ag-XSUoiwr-101" value="&lt;u&gt;last name&lt;/u&gt;" style="ellipse;whiteSpace=wrap;html=1;" parent="WIyWlLk6GJQsqaUBKTNV-1" vertex="1">
          <mxGeometry x="510" y="1021.75" width="90" height="35" as="geometry" />
        </mxCell>
        <mxCell id="nEtOkZ7gd0ag-XSUoiwr-102" value="phone number" style="ellipse;whiteSpace=wrap;html=1;" parent="WIyWlLk6GJQsqaUBKTNV-1" vertex="1">
          <mxGeometry x="580" y="1072" width="90" height="35" as="geometry" />
        </mxCell>
        <mxCell id="nEtOkZ7gd0ag-XSUoiwr-103" value="" style="endArrow=none;html=1;rounded=0;entryX=0.5;entryY=1;entryDx=0;entryDy=0;exitX=0.5;exitY=0;exitDx=0;exitDy=0;" parent="WIyWlLk6GJQsqaUBKTNV-1" source="nEtOkZ7gd0ag-XSUoiwr-93" target="nEtOkZ7gd0ag-XSUoiwr-100" edge="1">
          <mxGeometry width="50" height="50" relative="1" as="geometry">
            <mxPoint x="450" y="1186.75" as="sourcePoint" />
            <mxPoint x="500" y="1136.75" as="targetPoint" />
          </mxGeometry>
        </mxCell>
        <mxCell id="nEtOkZ7gd0ag-XSUoiwr-104" value="" style="endArrow=none;html=1;rounded=0;entryX=0.5;entryY=1;entryDx=0;entryDy=0;exitX=0.5;exitY=0;exitDx=0;exitDy=0;" parent="WIyWlLk6GJQsqaUBKTNV-1" source="nEtOkZ7gd0ag-XSUoiwr-93" target="nEtOkZ7gd0ag-XSUoiwr-101" edge="1">
          <mxGeometry width="50" height="50" relative="1" as="geometry">
            <mxPoint x="480" y="1196.75" as="sourcePoint" />
            <mxPoint x="530" y="1146.75" as="targetPoint" />
          </mxGeometry>
        </mxCell>
        <mxCell id="nEtOkZ7gd0ag-XSUoiwr-105" value="" style="endArrow=none;html=1;rounded=0;entryX=0;entryY=0.5;entryDx=0;entryDy=0;exitX=1;exitY=0.5;exitDx=0;exitDy=0;" parent="WIyWlLk6GJQsqaUBKTNV-1" source="nEtOkZ7gd0ag-XSUoiwr-93" target="nEtOkZ7gd0ag-XSUoiwr-102" edge="1">
          <mxGeometry width="50" height="50" relative="1" as="geometry">
            <mxPoint x="530" y="1176.75" as="sourcePoint" />
            <mxPoint x="580" y="1126.75" as="targetPoint" />
          </mxGeometry>
        </mxCell>
        <mxCell id="nEtOkZ7gd0ag-XSUoiwr-106" value="Club Member" style="rounded=0;whiteSpace=wrap;html=1;" parent="WIyWlLk6GJQsqaUBKTNV-1" vertex="1">
          <mxGeometry x="720" y="1169" width="120" height="40" as="geometry" />
        </mxCell>
        <mxCell id="nEtOkZ7gd0ag-XSUoiwr-107" value="" style="endArrow=none;html=1;rounded=0;entryX=0.5;entryY=1;entryDx=0;entryDy=0;exitX=0.5;exitY=0;exitDx=0;exitDy=0;" parent="WIyWlLk6GJQsqaUBKTNV-1" source="nEtOkZ7gd0ag-XSUoiwr-118" edge="1">
          <mxGeometry width="50" height="50" relative="1" as="geometry">
            <mxPoint x="730" y="1450" as="sourcePoint" />
            <mxPoint x="780" y="1210" as="targetPoint" />
          </mxGeometry>
        </mxCell>
        <mxCell id="nEtOkZ7gd0ag-XSUoiwr-108" value="first name" style="ellipse;whiteSpace=wrap;html=1;" parent="WIyWlLk6GJQsqaUBKTNV-1" vertex="1">
          <mxGeometry x="735" y="1230" width="90" height="35" as="geometry" />
        </mxCell>
        <mxCell id="nEtOkZ7gd0ag-XSUoiwr-109" value="" style="endArrow=none;html=1;rounded=0;entryX=0.5;entryY=1;entryDx=0;entryDy=0;exitX=0.5;exitY=0;exitDx=0;exitDy=0;" parent="WIyWlLk6GJQsqaUBKTNV-1" source="nEtOkZ7gd0ag-XSUoiwr-108" edge="1">
          <mxGeometry width="50" height="50" relative="1" as="geometry">
            <mxPoint x="660" y="1280" as="sourcePoint" />
            <mxPoint x="780" y="1210" as="targetPoint" />
          </mxGeometry>
        </mxCell>
        <mxCell id="nEtOkZ7gd0ag-XSUoiwr-110" value="last name" style="ellipse;whiteSpace=wrap;html=1;" parent="WIyWlLk6GJQsqaUBKTNV-1" vertex="1">
          <mxGeometry x="840" y="1230" width="90" height="35" as="geometry" />
        </mxCell>
        <mxCell id="nEtOkZ7gd0ag-XSUoiwr-111" value="&lt;b&gt;&lt;u&gt;CMN&lt;/u&gt;&lt;/b&gt;" style="ellipse;whiteSpace=wrap;html=1;" parent="WIyWlLk6GJQsqaUBKTNV-1" vertex="1">
          <mxGeometry x="630" y="1230" width="90" height="35" as="geometry" />
        </mxCell>
        <mxCell id="nEtOkZ7gd0ag-XSUoiwr-112" value="birth date" style="ellipse;whiteSpace=wrap;html=1;" parent="WIyWlLk6GJQsqaUBKTNV-1" vertex="1">
          <mxGeometry x="630" y="1270" width="90" height="35" as="geometry" />
        </mxCell>
        <mxCell id="nEtOkZ7gd0ag-XSUoiwr-113" value="height" style="ellipse;whiteSpace=wrap;html=1;" parent="WIyWlLk6GJQsqaUBKTNV-1" vertex="1">
          <mxGeometry x="735" y="1270" width="90" height="35" as="geometry" />
        </mxCell>
        <mxCell id="nEtOkZ7gd0ag-XSUoiwr-114" value="weight" style="ellipse;whiteSpace=wrap;html=1;" parent="WIyWlLk6GJQsqaUBKTNV-1" vertex="1">
          <mxGeometry x="840" y="1270" width="90" height="35" as="geometry" />
        </mxCell>
        <mxCell id="nEtOkZ7gd0ag-XSUoiwr-115" value="SIN" style="ellipse;whiteSpace=wrap;html=1;" parent="WIyWlLk6GJQsqaUBKTNV-1" vertex="1">
          <mxGeometry x="630" y="1310" width="90" height="35" as="geometry" />
        </mxCell>
        <mxCell id="nEtOkZ7gd0ag-XSUoiwr-116" value="medicare number" style="ellipse;whiteSpace=wrap;html=1;" parent="WIyWlLk6GJQsqaUBKTNV-1" vertex="1">
          <mxGeometry x="735" y="1310" width="90" height="35" as="geometry" />
        </mxCell>
        <mxCell id="nEtOkZ7gd0ag-XSUoiwr-117" value="phone number" style="ellipse;whiteSpace=wrap;html=1;" parent="WIyWlLk6GJQsqaUBKTNV-1" vertex="1">
          <mxGeometry x="840" y="1310" width="90" height="35" as="geometry" />
        </mxCell>
        <mxCell id="nEtOkZ7gd0ag-XSUoiwr-118" value="province" style="ellipse;whiteSpace=wrap;html=1;" parent="WIyWlLk6GJQsqaUBKTNV-1" vertex="1">
          <mxGeometry x="735" y="1350" width="90" height="35" as="geometry" />
        </mxCell>
        <mxCell id="nEtOkZ7gd0ag-XSUoiwr-119" value="" style="endArrow=none;html=1;rounded=0;entryX=0;entryY=1;entryDx=0;entryDy=0;exitX=0.5;exitY=0;exitDx=0;exitDy=0;" parent="WIyWlLk6GJQsqaUBKTNV-1" source="nEtOkZ7gd0ag-XSUoiwr-111" edge="1">
          <mxGeometry width="50" height="50" relative="1" as="geometry">
            <mxPoint x="690" y="1260" as="sourcePoint" />
            <mxPoint x="720" y="1210" as="targetPoint" />
          </mxGeometry>
        </mxCell>
        <mxCell id="nEtOkZ7gd0ag-XSUoiwr-120" value="" style="endArrow=none;html=1;rounded=0;exitX=1;exitY=0.5;exitDx=0;exitDy=0;entryX=0.161;entryY=0.982;entryDx=0;entryDy=0;entryPerimeter=0;" parent="WIyWlLk6GJQsqaUBKTNV-1" source="nEtOkZ7gd0ag-XSUoiwr-112" edge="1">
          <mxGeometry width="50" height="50" relative="1" as="geometry">
            <mxPoint x="720" y="1280" as="sourcePoint" />
            <mxPoint x="739" y="1209" as="targetPoint" />
          </mxGeometry>
        </mxCell>
        <mxCell id="nEtOkZ7gd0ag-XSUoiwr-121" value="" style="endArrow=none;html=1;rounded=0;entryX=0.155;entryY=0.982;entryDx=0;entryDy=0;entryPerimeter=0;exitX=1;exitY=0.382;exitDx=0;exitDy=0;exitPerimeter=0;" parent="WIyWlLk6GJQsqaUBKTNV-1" source="nEtOkZ7gd0ag-XSUoiwr-115" edge="1">
          <mxGeometry width="50" height="50" relative="1" as="geometry">
            <mxPoint x="710" y="1270" as="sourcePoint" />
            <mxPoint x="739" y="1209" as="targetPoint" />
          </mxGeometry>
        </mxCell>
        <mxCell id="nEtOkZ7gd0ag-XSUoiwr-122" value="" style="endArrow=none;html=1;rounded=0;entryX=1;entryY=1;entryDx=0;entryDy=0;exitX=0.5;exitY=0;exitDx=0;exitDy=0;" parent="WIyWlLk6GJQsqaUBKTNV-1" source="nEtOkZ7gd0ag-XSUoiwr-110" edge="1">
          <mxGeometry width="50" height="50" relative="1" as="geometry">
            <mxPoint x="860" y="1240" as="sourcePoint" />
            <mxPoint x="840" y="1210" as="targetPoint" />
          </mxGeometry>
        </mxCell>
        <mxCell id="nEtOkZ7gd0ag-XSUoiwr-123" value="" style="endArrow=none;html=1;rounded=0;entryX=0.858;entryY=1.019;entryDx=0;entryDy=0;entryPerimeter=0;exitX=0;exitY=0.5;exitDx=0;exitDy=0;" parent="WIyWlLk6GJQsqaUBKTNV-1" source="nEtOkZ7gd0ag-XSUoiwr-114" edge="1">
          <mxGeometry width="50" height="50" relative="1" as="geometry">
            <mxPoint x="790" y="1280" as="sourcePoint" />
            <mxPoint x="823" y="1211" as="targetPoint" />
          </mxGeometry>
        </mxCell>
        <mxCell id="nEtOkZ7gd0ag-XSUoiwr-124" value="" style="endArrow=none;html=1;rounded=0;entryX=0;entryY=0.5;entryDx=0;entryDy=0;exitX=0.852;exitY=0.982;exitDx=0;exitDy=0;exitPerimeter=0;" parent="WIyWlLk6GJQsqaUBKTNV-1" target="nEtOkZ7gd0ag-XSUoiwr-117" edge="1">
          <mxGeometry width="50" height="50" relative="1" as="geometry">
            <mxPoint x="822" y="1209" as="sourcePoint" />
            <mxPoint x="960" y="1420" as="targetPoint" />
          </mxGeometry>
        </mxCell>
        <mxCell id="nEtOkZ7gd0ag-XSUoiwr-125" value="city" style="ellipse;whiteSpace=wrap;html=1;" parent="WIyWlLk6GJQsqaUBKTNV-1" vertex="1">
          <mxGeometry x="630" y="1350" width="90" height="35" as="geometry" />
        </mxCell>
        <mxCell id="nEtOkZ7gd0ag-XSUoiwr-126" value="postal code" style="ellipse;whiteSpace=wrap;html=1;" parent="WIyWlLk6GJQsqaUBKTNV-1" vertex="1">
          <mxGeometry x="840" y="1350" width="90" height="35" as="geometry" />
        </mxCell>
        <mxCell id="nEtOkZ7gd0ag-XSUoiwr-127" value="" style="endArrow=none;html=1;rounded=0;entryX=0.175;entryY=1.011;entryDx=0;entryDy=0;entryPerimeter=0;exitX=1;exitY=0.5;exitDx=0;exitDy=0;" parent="WIyWlLk6GJQsqaUBKTNV-1" source="nEtOkZ7gd0ag-XSUoiwr-125" target="nEtOkZ7gd0ag-XSUoiwr-106" edge="1">
          <mxGeometry width="50" height="50" relative="1" as="geometry">
            <mxPoint x="695" y="1444" as="sourcePoint" />
            <mxPoint x="745" y="1394" as="targetPoint" />
          </mxGeometry>
        </mxCell>
        <mxCell id="nEtOkZ7gd0ag-XSUoiwr-128" value="" style="endArrow=none;html=1;rounded=0;entryX=0;entryY=0.5;entryDx=0;entryDy=0;" parent="WIyWlLk6GJQsqaUBKTNV-1" target="nEtOkZ7gd0ag-XSUoiwr-126" edge="1">
          <mxGeometry width="50" height="50" relative="1" as="geometry">
            <mxPoint x="825" y="1214" as="sourcePoint" />
            <mxPoint x="855" y="1414" as="targetPoint" />
          </mxGeometry>
        </mxCell>
        <mxCell id="nEtOkZ7gd0ag-XSUoiwr-136" value="" style="endArrow=none;html=1;rounded=0;entryX=0.5;entryY=1;entryDx=0;entryDy=0;exitX=1;exitY=0.5;exitDx=0;exitDy=0;" parent="WIyWlLk6GJQsqaUBKTNV-1" source="nEtOkZ7gd0ag-XSUoiwr-68" target="nEtOkZ7gd0ag-XSUoiwr-59" edge="1">
          <mxGeometry width="50" height="50" relative="1" as="geometry">
            <mxPoint x="120" y="1180" as="sourcePoint" />
            <mxPoint x="170" y="1130" as="targetPoint" />
          </mxGeometry>
        </mxCell>
        <mxCell id="nEtOkZ7gd0ag-XSUoiwr-137" value="" style="endArrow=none;html=1;rounded=0;entryX=0.5;entryY=1;entryDx=0;entryDy=0;exitX=1;exitY=0.5;exitDx=0;exitDy=0;" parent="WIyWlLk6GJQsqaUBKTNV-1" target="nEtOkZ7gd0ag-XSUoiwr-59" edge="1">
          <mxGeometry width="50" height="50" relative="1" as="geometry">
            <mxPoint x="70" y="1368" as="sourcePoint" />
            <mxPoint x="180" y="1079" as="targetPoint" />
          </mxGeometry>
        </mxCell>
        <mxCell id="nEtOkZ7gd0ag-XSUoiwr-138" value="" style="endArrow=none;html=1;rounded=0;entryX=0.25;entryY=1;entryDx=0;entryDy=0;exitX=1;exitY=0.286;exitDx=0;exitDy=0;exitPerimeter=0;" parent="WIyWlLk6GJQsqaUBKTNV-1" source="nEtOkZ7gd0ag-XSUoiwr-70" target="nEtOkZ7gd0ag-XSUoiwr-59" edge="1">
          <mxGeometry width="50" height="50" relative="1" as="geometry">
            <mxPoint x="80" y="1378" as="sourcePoint" />
            <mxPoint x="190" y="1129" as="targetPoint" />
          </mxGeometry>
        </mxCell>
        <mxCell id="nEtOkZ7gd0ag-XSUoiwr-139" value="" style="endArrow=none;html=1;rounded=0;entryX=0.25;entryY=1;entryDx=0;entryDy=0;exitX=1;exitY=0.5;exitDx=0;exitDy=0;" parent="WIyWlLk6GJQsqaUBKTNV-1" source="nEtOkZ7gd0ag-XSUoiwr-67" target="nEtOkZ7gd0ag-XSUoiwr-59" edge="1">
          <mxGeometry width="50" height="50" relative="1" as="geometry">
            <mxPoint x="90" y="1388" as="sourcePoint" />
            <mxPoint x="200" y="1139" as="targetPoint" />
          </mxGeometry>
        </mxCell>
        <mxCell id="nEtOkZ7gd0ag-XSUoiwr-140" value="" style="endArrow=none;html=1;rounded=0;entryX=0;entryY=1;entryDx=0;entryDy=0;exitX=1;exitY=0.5;exitDx=0;exitDy=0;" parent="WIyWlLk6GJQsqaUBKTNV-1" source="nEtOkZ7gd0ag-XSUoiwr-69" target="nEtOkZ7gd0ag-XSUoiwr-59" edge="1">
          <mxGeometry width="50" height="50" relative="1" as="geometry">
            <mxPoint x="100" y="1398" as="sourcePoint" />
            <mxPoint x="210" y="1149" as="targetPoint" />
          </mxGeometry>
        </mxCell>
        <mxCell id="nEtOkZ7gd0ag-XSUoiwr-141" value="" style="endArrow=none;html=1;rounded=0;entryX=0;entryY=0.5;entryDx=0;entryDy=0;exitX=1;exitY=0.5;exitDx=0;exitDy=0;" parent="WIyWlLk6GJQsqaUBKTNV-1" source="nEtOkZ7gd0ag-XSUoiwr-66" target="nEtOkZ7gd0ag-XSUoiwr-59" edge="1">
          <mxGeometry width="50" height="50" relative="1" as="geometry">
            <mxPoint x="110" y="1408" as="sourcePoint" />
            <mxPoint x="220" y="1159" as="targetPoint" />
          </mxGeometry>
        </mxCell>
        <mxCell id="nEtOkZ7gd0ag-XSUoiwr-142" value="" style="endArrow=none;html=1;rounded=0;entryX=0;entryY=0.5;entryDx=0;entryDy=0;exitX=1;exitY=0.5;exitDx=0;exitDy=0;" parent="WIyWlLk6GJQsqaUBKTNV-1" source="nEtOkZ7gd0ag-XSUoiwr-65" target="nEtOkZ7gd0ag-XSUoiwr-59" edge="1">
          <mxGeometry width="50" height="50" relative="1" as="geometry">
            <mxPoint x="120" y="1418" as="sourcePoint" />
            <mxPoint x="230" y="1169" as="targetPoint" />
          </mxGeometry>
        </mxCell>
        <mxCell id="nEtOkZ7gd0ag-XSUoiwr-143" value="" style="endArrow=none;html=1;rounded=0;entryX=0;entryY=0.5;entryDx=0;entryDy=0;exitX=1;exitY=0.5;exitDx=0;exitDy=0;" parent="WIyWlLk6GJQsqaUBKTNV-1" source="nEtOkZ7gd0ag-XSUoiwr-64" target="nEtOkZ7gd0ag-XSUoiwr-59" edge="1">
          <mxGeometry width="50" height="50" relative="1" as="geometry">
            <mxPoint x="130" y="1428" as="sourcePoint" />
            <mxPoint x="240" y="1179" as="targetPoint" />
          </mxGeometry>
        </mxCell>
        <mxCell id="nEtOkZ7gd0ag-XSUoiwr-144" value="" style="endArrow=none;html=1;rounded=0;entryX=0;entryY=0.5;entryDx=0;entryDy=0;exitX=1;exitY=0.5;exitDx=0;exitDy=0;" parent="WIyWlLk6GJQsqaUBKTNV-1" source="nEtOkZ7gd0ag-XSUoiwr-62" target="nEtOkZ7gd0ag-XSUoiwr-59" edge="1">
          <mxGeometry width="50" height="50" relative="1" as="geometry">
            <mxPoint x="80" y="1120" as="sourcePoint" />
            <mxPoint x="130" y="1109" as="targetPoint" />
          </mxGeometry>
        </mxCell>
        <mxCell id="nEtOkZ7gd0ag-XSUoiwr-147" style="edgeStyle=orthogonalEdgeStyle;rounded=0;orthogonalLoop=1;jettySize=auto;html=1;exitX=0;exitY=0.5;exitDx=0;exitDy=0;entryX=0.656;entryY=0.973;entryDx=0;entryDy=0;entryPerimeter=0;" parent="WIyWlLk6GJQsqaUBKTNV-1" source="nEtOkZ7gd0ag-XSUoiwr-145" target="nEtOkZ7gd0ag-XSUoiwr-59" edge="1">
          <mxGeometry relative="1" as="geometry" />
        </mxCell>
        <mxCell id="nEtOkZ7gd0ag-XSUoiwr-145" value="Relationship" style="rhombus;whiteSpace=wrap;html=1;" parent="WIyWlLk6GJQsqaUBKTNV-1" vertex="1">
          <mxGeometry x="330" y="1198.25" width="90" height="50" as="geometry" />
        </mxCell>
        <mxCell id="nEtOkZ7gd0ag-XSUoiwr-146" value="" style="endArrow=none;html=1;rounded=0;entryX=1;entryY=0.5;entryDx=0;entryDy=0;" parent="WIyWlLk6GJQsqaUBKTNV-1" source="nEtOkZ7gd0ag-XSUoiwr-106" target="nEtOkZ7gd0ag-XSUoiwr-145" edge="1">
          <mxGeometry width="50" height="50" relative="1" as="geometry">
            <mxPoint x="710" y="1200" as="sourcePoint" />
            <mxPoint x="300" y="1240" as="targetPoint" />
          </mxGeometry>
        </mxCell>
        <mxCell id="Ak_wFlDR8z4ldmzF6ij--2" value="Payment" style="rounded=0;whiteSpace=wrap;html=1;" parent="WIyWlLk6GJQsqaUBKTNV-1" vertex="1">
          <mxGeometry x="990" y="1330" width="120" height="40" as="geometry" />
        </mxCell>
        <mxCell id="Ak_wFlDR8z4ldmzF6ij--3" value="amount" style="ellipse;whiteSpace=wrap;html=1;" parent="WIyWlLk6GJQsqaUBKTNV-1" vertex="1">
          <mxGeometry x="920" y="1445" width="90" height="35" as="geometry" />
        </mxCell>
        <mxCell id="Ak_wFlDR8z4ldmzF6ij--4" value="paymentDate" style="ellipse;whiteSpace=wrap;html=1;" parent="WIyWlLk6GJQsqaUBKTNV-1" vertex="1">
          <mxGeometry x="970" y="1484" width="90" height="35" as="geometry" />
        </mxCell>
        <mxCell id="Ak_wFlDR8z4ldmzF6ij--5" value="method" style="ellipse;whiteSpace=wrap;html=1;" parent="WIyWlLk6GJQsqaUBKTNV-1" vertex="1">
          <mxGeometry x="1130" y="1484" width="90" height="35" as="geometry" />
        </mxCell>
        <mxCell id="Ak_wFlDR8z4ldmzF6ij--6" value="effectiveDate" style="ellipse;whiteSpace=wrap;html=1;" parent="WIyWlLk6GJQsqaUBKTNV-1" vertex="1">
          <mxGeometry x="1035" y="1445" width="90" height="35" as="geometry" />
        </mxCell>
        <mxCell id="Ak_wFlDR8z4ldmzF6ij--7" value="Makes" style="rhombus;whiteSpace=wrap;html=1;" parent="WIyWlLk6GJQsqaUBKTNV-1" vertex="1">
          <mxGeometry x="1000" y="1181.75" width="100" height="60" as="geometry" />
        </mxCell>
        <mxCell id="Ak_wFlDR8z4ldmzF6ij--9" value="" style="endArrow=classic;html=1;rounded=0;exitX=0;exitY=0.5;exitDx=0;exitDy=0;entryX=1;entryY=0.5;entryDx=0;entryDy=0;" parent="WIyWlLk6GJQsqaUBKTNV-1" source="Ak_wFlDR8z4ldmzF6ij--7" target="nEtOkZ7gd0ag-XSUoiwr-106" edge="1">
          <mxGeometry width="50" height="50" relative="1" as="geometry">
            <mxPoint x="610" y="1219" as="sourcePoint" />
            <mxPoint x="660" y="1169" as="targetPoint" />
          </mxGeometry>
        </mxCell>
        <mxCell id="Ak_wFlDR8z4ldmzF6ij--10" value="" style="endArrow=none;html=1;rounded=0;entryX=0.5;entryY=1;entryDx=0;entryDy=0;exitX=0.5;exitY=0;exitDx=0;exitDy=0;" parent="WIyWlLk6GJQsqaUBKTNV-1" source="Ak_wFlDR8z4ldmzF6ij--2" target="Ak_wFlDR8z4ldmzF6ij--7" edge="1">
          <mxGeometry width="50" height="50" relative="1" as="geometry">
            <mxPoint x="1050" y="1320" as="sourcePoint" />
            <mxPoint x="570" y="1319" as="targetPoint" />
          </mxGeometry>
        </mxCell>
        <mxCell id="Ak_wFlDR8z4ldmzF6ij--11" value="" style="endArrow=none;html=1;rounded=0;entryX=0.5;entryY=1;entryDx=0;entryDy=0;" parent="WIyWlLk6GJQsqaUBKTNV-1" source="Ak_wFlDR8z4ldmzF6ij--3" edge="1">
          <mxGeometry width="50" height="50" relative="1" as="geometry">
            <mxPoint x="992.1030147522079" y="1425.3132181809465" as="sourcePoint" />
            <mxPoint x="1050" y="1370" as="targetPoint" />
          </mxGeometry>
        </mxCell>
        <mxCell id="Ak_wFlDR8z4ldmzF6ij--12" value="" style="endArrow=none;html=1;rounded=0;entryX=0.444;entryY=0;entryDx=0;entryDy=0;exitX=0.5;exitY=1;exitDx=0;exitDy=0;entryPerimeter=0;" parent="WIyWlLk6GJQsqaUBKTNV-1" target="Ak_wFlDR8z4ldmzF6ij--6" edge="1">
          <mxGeometry width="50" height="50" relative="1" as="geometry">
            <mxPoint x="1050" y="1370" as="sourcePoint" />
            <mxPoint x="1070" y="1305" as="targetPoint" />
          </mxGeometry>
        </mxCell>
        <mxCell id="Ak_wFlDR8z4ldmzF6ij--13" value="" style="endArrow=none;html=1;rounded=0;entryX=0.5;entryY=0;entryDx=0;entryDy=0;" parent="WIyWlLk6GJQsqaUBKTNV-1" target="Ak_wFlDR8z4ldmzF6ij--4" edge="1">
          <mxGeometry width="50" height="50" relative="1" as="geometry">
            <mxPoint x="1050" y="1374" as="sourcePoint" />
            <mxPoint x="1080" y="1315" as="targetPoint" />
          </mxGeometry>
        </mxCell>
        <mxCell id="Ak_wFlDR8z4ldmzF6ij--14" value="" style="endArrow=none;html=1;rounded=0;exitX=0.5;exitY=0;exitDx=0;exitDy=0;" parent="WIyWlLk6GJQsqaUBKTNV-1" source="Ak_wFlDR8z4ldmzF6ij--5" edge="1">
          <mxGeometry width="50" height="50" relative="1" as="geometry">
            <mxPoint x="1090" y="1350" as="sourcePoint" />
            <mxPoint x="1050" y="1369" as="targetPoint" />
          </mxGeometry>
        </mxCell>
        <mxCell id="Ak_wFlDR8z4ldmzF6ij--19" value="name" style="ellipse;whiteSpace=wrap;html=1;" parent="WIyWlLk6GJQsqaUBKTNV-1" vertex="1">
          <mxGeometry x="870" y="937.5" width="90" height="35" as="geometry" />
        </mxCell>
        <mxCell id="Ak_wFlDR8z4ldmzF6ij--21" value="TeamFormation" style="rounded=0;whiteSpace=wrap;html=1;" parent="WIyWlLk6GJQsqaUBKTNV-1" vertex="1">
          <mxGeometry x="720" y="935" width="120" height="40" as="geometry" />
        </mxCell>
        <mxCell id="Ak_wFlDR8z4ldmzF6ij--22" value="PlaysFor" style="rhombus;whiteSpace=wrap;html=1;" parent="WIyWlLk6GJQsqaUBKTNV-1" vertex="1">
          <mxGeometry x="735" y="1050" width="90" height="50" as="geometry" />
        </mxCell>
        <mxCell id="Ak_wFlDR8z4ldmzF6ij--23" value="Home" style="rhombus;whiteSpace=wrap;html=1;" parent="WIyWlLk6GJQsqaUBKTNV-1" vertex="1">
          <mxGeometry x="280" y="930" width="90" height="50" as="geometry" />
        </mxCell>
        <mxCell id="Ak_wFlDR8z4ldmzF6ij--24" value="Participates" style="rhombus;whiteSpace=wrap;html=1;" parent="WIyWlLk6GJQsqaUBKTNV-1" vertex="1">
          <mxGeometry x="610" y="780" width="90" height="50" as="geometry" />
        </mxCell>
        <mxCell id="Ak_wFlDR8z4ldmzF6ij--25" value="Hosts" style="rhombus;whiteSpace=wrap;html=1;" parent="WIyWlLk6GJQsqaUBKTNV-1" vertex="1">
          <mxGeometry x="320" y="667.5" width="90" height="50" as="geometry" />
        </mxCell>
        <mxCell id="Ak_wFlDR8z4ldmzF6ij--26" value="&lt;b&gt;&lt;u&gt;Id&lt;/u&gt;&lt;/b&gt;" style="ellipse;whiteSpace=wrap;html=1;" parent="WIyWlLk6GJQsqaUBKTNV-1" vertex="1">
          <mxGeometry x="400" y="610" width="90" height="35" as="geometry" />
        </mxCell>
        <mxCell id="Ak_wFlDR8z4ldmzF6ij--27" value="role" style="ellipse;whiteSpace=wrap;html=1;" parent="WIyWlLk6GJQsqaUBKTNV-1" vertex="1">
          <mxGeometry x="870" y="1057.5" width="90" height="35" as="geometry" />
        </mxCell>
        <mxCell id="Ak_wFlDR8z4ldmzF6ij--28" value="eventDateTime" style="ellipse;whiteSpace=wrap;html=1;" parent="WIyWlLk6GJQsqaUBKTNV-1" vertex="1">
          <mxGeometry x="500" y="610" width="90" height="35" as="geometry" />
        </mxCell>
        <mxCell id="Ak_wFlDR8z4ldmzF6ij--29" value="score" style="ellipse;whiteSpace=wrap;html=1;" parent="WIyWlLk6GJQsqaUBKTNV-1" vertex="1">
          <mxGeometry x="735" y="787.5" width="90" height="35" as="geometry" />
        </mxCell>
        <mxCell id="Ak_wFlDR8z4ldmzF6ij--30" value="" style="endArrow=none;html=1;rounded=0;" parent="WIyWlLk6GJQsqaUBKTNV-1" source="Ak_wFlDR8z4ldmzF6ij--22" target="nEtOkZ7gd0ag-XSUoiwr-106" edge="1">
          <mxGeometry width="50" height="50" relative="1" as="geometry">
            <mxPoint x="470" y="1000" as="sourcePoint" />
            <mxPoint x="520" y="950" as="targetPoint" />
          </mxGeometry>
        </mxCell>
        <mxCell id="Ak_wFlDR8z4ldmzF6ij--32" value="" style="endArrow=none;html=1;rounded=0;" parent="WIyWlLk6GJQsqaUBKTNV-1" source="Ak_wFlDR8z4ldmzF6ij--22" target="Ak_wFlDR8z4ldmzF6ij--27" edge="1">
          <mxGeometry width="50" height="50" relative="1" as="geometry">
            <mxPoint x="740" y="1020" as="sourcePoint" />
            <mxPoint x="790" y="970" as="targetPoint" />
          </mxGeometry>
        </mxCell>
        <mxCell id="Ak_wFlDR8z4ldmzF6ij--33" value="" style="endArrow=none;html=1;rounded=0;" parent="WIyWlLk6GJQsqaUBKTNV-1" source="Ak_wFlDR8z4ldmzF6ij--24" target="Ak_wFlDR8z4ldmzF6ij--21" edge="1">
          <mxGeometry width="50" height="50" relative="1" as="geometry">
            <mxPoint x="740" y="1020" as="sourcePoint" />
            <mxPoint x="790" y="970" as="targetPoint" />
          </mxGeometry>
        </mxCell>
        <mxCell id="Ak_wFlDR8z4ldmzF6ij--36" value="" style="endArrow=open;html=1;rounded=0;endFill=0;entryX=0.536;entryY=0.978;entryDx=0;entryDy=0;entryPerimeter=0;" parent="WIyWlLk6GJQsqaUBKTNV-1" source="Ak_wFlDR8z4ldmzF6ij--24" target="Ak_wFlDR8z4ldmzF6ij--53" edge="1">
          <mxGeometry width="50" height="50" relative="1" as="geometry">
            <mxPoint x="740" y="830" as="sourcePoint" />
            <mxPoint x="790" y="780" as="targetPoint" />
          </mxGeometry>
        </mxCell>
        <mxCell id="Ak_wFlDR8z4ldmzF6ij--37" value="" style="endArrow=none;html=1;rounded=0;" parent="WIyWlLk6GJQsqaUBKTNV-1" source="Ak_wFlDR8z4ldmzF6ij--24" target="Ak_wFlDR8z4ldmzF6ij--29" edge="1">
          <mxGeometry width="50" height="50" relative="1" as="geometry">
            <mxPoint x="740" y="830" as="sourcePoint" />
            <mxPoint x="790" y="780" as="targetPoint" />
          </mxGeometry>
        </mxCell>
        <mxCell id="Ak_wFlDR8z4ldmzF6ij--38" value="" style="endArrow=none;html=1;rounded=0;entryX=0.014;entryY=0.382;entryDx=0;entryDy=0;entryPerimeter=0;" parent="WIyWlLk6GJQsqaUBKTNV-1" source="Ak_wFlDR8z4ldmzF6ij--25" target="Ak_wFlDR8z4ldmzF6ij--53" edge="1">
          <mxGeometry width="50" height="50" relative="1" as="geometry">
            <mxPoint x="550" y="860" as="sourcePoint" />
            <mxPoint x="600" y="810" as="targetPoint" />
          </mxGeometry>
        </mxCell>
        <mxCell id="Ak_wFlDR8z4ldmzF6ij--39" value="" style="endArrow=classic;html=1;rounded=0;" parent="WIyWlLk6GJQsqaUBKTNV-1" source="Ak_wFlDR8z4ldmzF6ij--25" target="nEtOkZ7gd0ag-XSUoiwr-0" edge="1">
          <mxGeometry width="50" height="50" relative="1" as="geometry">
            <mxPoint x="550" y="860" as="sourcePoint" />
            <mxPoint x="600" y="810" as="targetPoint" />
          </mxGeometry>
        </mxCell>
        <mxCell id="Ak_wFlDR8z4ldmzF6ij--41" value="" style="endArrow=classic;html=1;rounded=0;" parent="WIyWlLk6GJQsqaUBKTNV-1" source="Ak_wFlDR8z4ldmzF6ij--23" target="Ak_wFlDR8z4ldmzF6ij--21" edge="1">
          <mxGeometry width="50" height="50" relative="1" as="geometry">
            <mxPoint x="550" y="920" as="sourcePoint" />
            <mxPoint x="600" y="870" as="targetPoint" />
          </mxGeometry>
        </mxCell>
        <mxCell id="Ak_wFlDR8z4ldmzF6ij--43" value="" style="endArrow=open;html=1;rounded=0;endFill=0;" parent="WIyWlLk6GJQsqaUBKTNV-1" source="Ak_wFlDR8z4ldmzF6ij--23" target="nEtOkZ7gd0ag-XSUoiwr-0" edge="1">
          <mxGeometry width="50" height="50" relative="1" as="geometry">
            <mxPoint x="649" y="799" as="sourcePoint" />
            <mxPoint x="569" y="718" as="targetPoint" />
          </mxGeometry>
        </mxCell>
        <mxCell id="Ak_wFlDR8z4ldmzF6ij--45" value="" style="endArrow=none;html=1;rounded=0;" parent="WIyWlLk6GJQsqaUBKTNV-1" source="Ak_wFlDR8z4ldmzF6ij--21" target="Ak_wFlDR8z4ldmzF6ij--19" edge="1">
          <mxGeometry width="50" height="50" relative="1" as="geometry">
            <mxPoint x="420" y="890" as="sourcePoint" />
            <mxPoint x="470" y="840" as="targetPoint" />
          </mxGeometry>
        </mxCell>
        <mxCell id="Ak_wFlDR8z4ldmzF6ij--46" value="" style="endArrow=none;html=1;rounded=0;entryX=0.046;entryY=0.029;entryDx=0;entryDy=0;entryPerimeter=0;" parent="WIyWlLk6GJQsqaUBKTNV-1" source="Ak_wFlDR8z4ldmzF6ij--26" target="Ak_wFlDR8z4ldmzF6ij--53" edge="1">
          <mxGeometry width="50" height="50" relative="1" as="geometry">
            <mxPoint x="420" y="890" as="sourcePoint" />
            <mxPoint x="470" y="840" as="targetPoint" />
          </mxGeometry>
        </mxCell>
        <mxCell id="Ak_wFlDR8z4ldmzF6ij--47" value="" style="endArrow=none;html=1;rounded=0;" parent="WIyWlLk6GJQsqaUBKTNV-1" source="Ak_wFlDR8z4ldmzF6ij--28" target="Ak_wFlDR8z4ldmzF6ij--53" edge="1">
          <mxGeometry width="50" height="50" relative="1" as="geometry">
            <mxPoint x="420" y="760" as="sourcePoint" />
            <mxPoint x="470" y="710" as="targetPoint" />
          </mxGeometry>
        </mxCell>
        <mxCell id="Ak_wFlDR8z4ldmzF6ij--48" value="LogEmail" style="rounded=0;whiteSpace=wrap;html=1;" parent="WIyWlLk6GJQsqaUBKTNV-1" vertex="1">
          <mxGeometry x="1000" y="671.25" width="120" height="40" as="geometry" />
        </mxCell>
        <mxCell id="Ak_wFlDR8z4ldmzF6ij--58" value="&lt;b&gt;&lt;u&gt;deliveryDateTime&lt;/u&gt;&lt;/b&gt;" style="ellipse;whiteSpace=wrap;html=1;" parent="WIyWlLk6GJQsqaUBKTNV-1" vertex="1">
          <mxGeometry x="990" y="610" width="90" height="35" as="geometry" />
        </mxCell>
        <mxCell id="Ak_wFlDR8z4ldmzF6ij--59" value="sender" style="ellipse;whiteSpace=wrap;html=1;" parent="WIyWlLk6GJQsqaUBKTNV-1" vertex="1">
          <mxGeometry x="1095" y="610" width="90" height="35" as="geometry" />
        </mxCell>
        <mxCell id="Ak_wFlDR8z4ldmzF6ij--60" value="subject" style="ellipse;whiteSpace=wrap;html=1;" parent="WIyWlLk6GJQsqaUBKTNV-1" vertex="1">
          <mxGeometry x="1160" y="660" width="90" height="35" as="geometry" />
        </mxCell>
        <mxCell id="Ak_wFlDR8z4ldmzF6ij--61" value="body" style="ellipse;whiteSpace=wrap;html=1;" parent="WIyWlLk6GJQsqaUBKTNV-1" vertex="1">
          <mxGeometry x="1160" y="720" width="90" height="35" as="geometry" />
        </mxCell>
        <mxCell id="Ak_wFlDR8z4ldmzF6ij--62" value="&lt;b&gt;&lt;u&gt;recipient&lt;/u&gt;&lt;/b&gt;" style="ellipse;whiteSpace=wrap;html=1;" parent="WIyWlLk6GJQsqaUBKTNV-1" vertex="1">
          <mxGeometry x="890" y="645" width="90" height="35" as="geometry" />
        </mxCell>
        <mxCell id="Ak_wFlDR8z4ldmzF6ij--63" value="" style="endArrow=none;html=1;rounded=0;" parent="WIyWlLk6GJQsqaUBKTNV-1" source="Ak_wFlDR8z4ldmzF6ij--48" target="Ak_wFlDR8z4ldmzF6ij--62" edge="1">
          <mxGeometry width="50" height="50" relative="1" as="geometry">
            <mxPoint x="880" y="730" as="sourcePoint" />
            <mxPoint x="930" y="680" as="targetPoint" />
          </mxGeometry>
        </mxCell>
        <mxCell id="Ak_wFlDR8z4ldmzF6ij--64" value="" style="endArrow=none;html=1;rounded=0;" parent="WIyWlLk6GJQsqaUBKTNV-1" source="Ak_wFlDR8z4ldmzF6ij--58" target="Ak_wFlDR8z4ldmzF6ij--48" edge="1">
          <mxGeometry width="50" height="50" relative="1" as="geometry">
            <mxPoint x="880" y="730" as="sourcePoint" />
            <mxPoint x="930" y="680" as="targetPoint" />
          </mxGeometry>
        </mxCell>
        <mxCell id="Ak_wFlDR8z4ldmzF6ij--65" value="" style="endArrow=none;html=1;rounded=0;" parent="WIyWlLk6GJQsqaUBKTNV-1" source="Ak_wFlDR8z4ldmzF6ij--59" target="Ak_wFlDR8z4ldmzF6ij--48" edge="1">
          <mxGeometry width="50" height="50" relative="1" as="geometry">
            <mxPoint x="880" y="730" as="sourcePoint" />
            <mxPoint x="930" y="680" as="targetPoint" />
          </mxGeometry>
        </mxCell>
        <mxCell id="Ak_wFlDR8z4ldmzF6ij--66" value="" style="endArrow=none;html=1;rounded=0;" parent="WIyWlLk6GJQsqaUBKTNV-1" source="Ak_wFlDR8z4ldmzF6ij--60" target="Ak_wFlDR8z4ldmzF6ij--48" edge="1">
          <mxGeometry width="50" height="50" relative="1" as="geometry">
            <mxPoint x="880" y="730" as="sourcePoint" />
            <mxPoint x="930" y="680" as="targetPoint" />
          </mxGeometry>
        </mxCell>
        <mxCell id="Ak_wFlDR8z4ldmzF6ij--67" value="" style="endArrow=none;html=1;rounded=0;" parent="WIyWlLk6GJQsqaUBKTNV-1" source="Ak_wFlDR8z4ldmzF6ij--61" target="Ak_wFlDR8z4ldmzF6ij--48" edge="1">
          <mxGeometry width="50" height="50" relative="1" as="geometry">
            <mxPoint x="880" y="730" as="sourcePoint" />
            <mxPoint x="930" y="680" as="targetPoint" />
          </mxGeometry>
        </mxCell>
        <mxCell id="Ak_wFlDR8z4ldmzF6ij--70" value="type" style="ellipse;whiteSpace=wrap;html=1;" parent="WIyWlLk6GJQsqaUBKTNV-1" vertex="1">
          <mxGeometry x="-20" y="475" width="90" height="35" as="geometry" />
        </mxCell>
        <mxCell id="_py4UkBO7gYFsBw7f4LY-1" value="&lt;b&gt;&lt;u&gt;Id&lt;/u&gt;&lt;/b&gt;" style="ellipse;whiteSpace=wrap;html=1;" parent="WIyWlLk6GJQsqaUBKTNV-1" vertex="1">
          <mxGeometry x="-20" y="1010" width="90" height="35" as="geometry" />
        </mxCell>
        <mxCell id="_py4UkBO7gYFsBw7f4LY-3" value="" style="endArrow=none;html=1;rounded=0;entryX=1;entryY=0.5;entryDx=0;entryDy=0;exitX=0;exitY=0.5;exitDx=0;exitDy=0;" parent="WIyWlLk6GJQsqaUBKTNV-1" source="nEtOkZ7gd0ag-XSUoiwr-59" target="_py4UkBO7gYFsBw7f4LY-1" edge="1">
          <mxGeometry width="50" height="50" relative="1" as="geometry">
            <mxPoint x="200" y="1070" as="sourcePoint" />
            <mxPoint x="250" y="1020" as="targetPoint" />
          </mxGeometry>
        </mxCell>
        <mxCell id="_py4UkBO7gYFsBw7f4LY-4" value="LocationPhone" style="rounded=0;whiteSpace=wrap;html=1;" parent="WIyWlLk6GJQsqaUBKTNV-1" vertex="1">
          <mxGeometry x="257" y="530" width="126" height="42.5" as="geometry" />
        </mxCell>
        <mxCell id="_py4UkBO7gYFsBw7f4LY-7" value="&lt;u&gt;PhoneNumber&lt;/u&gt;" style="ellipse;whiteSpace=wrap;html=1;" parent="WIyWlLk6GJQsqaUBKTNV-1" vertex="1">
          <mxGeometry x="410" y="465" width="90" height="35" as="geometry" />
        </mxCell>
        <mxCell id="_py4UkBO7gYFsBw7f4LY-9" value="" style="endArrow=none;html=1;rounded=0;entryX=0;entryY=0.5;entryDx=0;entryDy=0;exitX=0.5;exitY=0;exitDx=0;exitDy=0;" parent="WIyWlLk6GJQsqaUBKTNV-1" source="_py4UkBO7gYFsBw7f4LY-4" target="_py4UkBO7gYFsBw7f4LY-7" edge="1">
          <mxGeometry width="50" height="50" relative="1" as="geometry">
            <mxPoint x="360" y="515" as="sourcePoint" />
            <mxPoint x="410" y="465" as="targetPoint" />
          </mxGeometry>
        </mxCell>
        <mxCell id="_py4UkBO7gYFsBw7f4LY-10" value="&lt;b&gt;&lt;u&gt;Id&lt;/u&gt;&lt;/b&gt;" style="ellipse;whiteSpace=wrap;html=1;" parent="WIyWlLk6GJQsqaUBKTNV-1" vertex="1">
          <mxGeometry x="660" y="80" width="90" height="35" as="geometry" />
        </mxCell>
        <mxCell id="_py4UkBO7gYFsBw7f4LY-11" value="" style="endArrow=none;html=1;rounded=0;entryX=0.067;entryY=0.314;entryDx=0;entryDy=0;entryPerimeter=0;exitX=0.367;exitY=-0.05;exitDx=0;exitDy=0;exitPerimeter=0;" parent="WIyWlLk6GJQsqaUBKTNV-1" source="nEtOkZ7gd0ag-XSUoiwr-23" target="_py4UkBO7gYFsBw7f4LY-10" edge="1">
          <mxGeometry width="50" height="50" relative="1" as="geometry">
            <mxPoint x="470" y="420" as="sourcePoint" />
            <mxPoint x="520" y="370" as="targetPoint" />
          </mxGeometry>
        </mxCell>
        <mxCell id="_py4UkBO7gYFsBw7f4LY-12" value="&lt;b&gt;&lt;u&gt;Id&lt;/u&gt;&lt;/b&gt;" style="ellipse;whiteSpace=wrap;html=1;" parent="WIyWlLk6GJQsqaUBKTNV-1" vertex="1">
          <mxGeometry x="1185" y="1420" width="90" height="35" as="geometry" />
        </mxCell>
        <mxCell id="_py4UkBO7gYFsBw7f4LY-13" value="" style="endArrow=none;html=1;rounded=0;entryX=0.5;entryY=1;entryDx=0;entryDy=0;exitX=0.5;exitY=0;exitDx=0;exitDy=0;" parent="WIyWlLk6GJQsqaUBKTNV-1" source="_py4UkBO7gYFsBw7f4LY-12" target="Ak_wFlDR8z4ldmzF6ij--2" edge="1">
          <mxGeometry width="50" height="50" relative="1" as="geometry">
            <mxPoint x="850" y="1290" as="sourcePoint" />
            <mxPoint x="900" y="1240" as="targetPoint" />
          </mxGeometry>
        </mxCell>
        <mxCell id="_py4UkBO7gYFsBw7f4LY-17" value="" style="endArrow=none;html=1;rounded=0;entryX=1;entryY=0.5;entryDx=0;entryDy=0;exitX=0.5;exitY=0;exitDx=0;exitDy=0;" parent="WIyWlLk6GJQsqaUBKTNV-1" source="nEtOkZ7gd0ag-XSUoiwr-0" target="_py4UkBO7gYFsBw7f4LY-0" edge="1">
          <mxGeometry width="50" height="50" relative="1" as="geometry">
            <mxPoint x="180" y="660" as="sourcePoint" />
            <mxPoint x="360" y="670" as="targetPoint" />
          </mxGeometry>
        </mxCell>
        <mxCell id="_py4UkBO7gYFsBw7f4LY-18" value="progressReport" style="ellipse;whiteSpace=wrap;html=1;" parent="WIyWlLk6GJQsqaUBKTNV-1" vertex="1">
          <mxGeometry x="630" y="1395" width="90" height="35" as="geometry" />
        </mxCell>
        <mxCell id="_py4UkBO7gYFsBw7f4LY-19" value="" style="endArrow=none;html=1;rounded=0;exitX=0.956;exitY=0.171;exitDx=0;exitDy=0;entryX=0.183;entryY=1.1;entryDx=0;entryDy=0;entryPerimeter=0;exitPerimeter=0;" parent="WIyWlLk6GJQsqaUBKTNV-1" source="_py4UkBO7gYFsBw7f4LY-18" target="nEtOkZ7gd0ag-XSUoiwr-106" edge="1">
          <mxGeometry width="50" height="50" relative="1" as="geometry">
            <mxPoint x="620" y="1260" as="sourcePoint" />
            <mxPoint x="670" y="1210" as="targetPoint" />
          </mxGeometry>
        </mxCell>
        <mxCell id="_py4UkBO7gYFsBw7f4LY-22" value="Home" style="rhombus;whiteSpace=wrap;html=1;" parent="WIyWlLk6GJQsqaUBKTNV-1" vertex="1">
          <mxGeometry x="240" y="602.5" width="90" height="50" as="geometry" />
        </mxCell>
        <mxCell id="_py4UkBO7gYFsBw7f4LY-23" value="Has" style="rhombus;whiteSpace=wrap;html=1;" parent="WIyWlLk6GJQsqaUBKTNV-1" vertex="1">
          <mxGeometry x="250" y="608.75" width="70" height="37.5" as="geometry" />
        </mxCell>
        <mxCell id="_py4UkBO7gYFsBw7f4LY-24" value="LocationPhone" style="rounded=0;whiteSpace=wrap;html=1;" parent="WIyWlLk6GJQsqaUBKTNV-1" vertex="1">
          <mxGeometry x="265" y="533.75" width="110" height="35" as="geometry" />
        </mxCell>
        <mxCell id="_py4UkBO7gYFsBw7f4LY-26" value="" style="endArrow=none;html=1;rounded=0;entryX=0.5;entryY=1;entryDx=0;entryDy=0;exitX=0.5;exitY=0;exitDx=0;exitDy=0;" parent="WIyWlLk6GJQsqaUBKTNV-1" source="_py4UkBO7gYFsBw7f4LY-23" target="_py4UkBO7gYFsBw7f4LY-4" edge="1">
          <mxGeometry width="50" height="50" relative="1" as="geometry">
            <mxPoint x="290" y="600" as="sourcePoint" />
            <mxPoint x="355" y="560" as="targetPoint" />
          </mxGeometry>
        </mxCell>
        <mxCell id="_py4UkBO7gYFsBw7f4LY-30" value="" style="endArrow=none;html=1;rounded=0;entryX=0.5;entryY=1;entryDx=0;entryDy=0;startArrow=classic;startFill=1;" parent="WIyWlLk6GJQsqaUBKTNV-1" target="_py4UkBO7gYFsBw7f4LY-22" edge="1">
          <mxGeometry width="50" height="50" relative="1" as="geometry">
            <mxPoint x="215" y="671.25" as="sourcePoint" />
            <mxPoint x="265" y="621.25" as="targetPoint" />
          </mxGeometry>
        </mxCell>
        <mxCell id="kA6EdKfdzq5KEBuTpNMv-0" value="&lt;u&gt;&lt;b&gt;Id&lt;/b&gt;&lt;/u&gt;" style="ellipse;whiteSpace=wrap;html=1;" parent="WIyWlLk6GJQsqaUBKTNV-1" vertex="1">
          <mxGeometry x="870" y="892.5" width="90" height="35" as="geometry" />
        </mxCell>
        <mxCell id="kA6EdKfdzq5KEBuTpNMv-1" value="CaptainId_FK" style="ellipse;whiteSpace=wrap;html=1;" parent="WIyWlLk6GJQsqaUBKTNV-1" vertex="1">
          <mxGeometry x="870" y="980" width="90" height="35" as="geometry" />
        </mxCell>
        <mxCell id="kA6EdKfdzq5KEBuTpNMv-2" value="" style="endArrow=none;html=1;rounded=0;entryX=0;entryY=0.5;entryDx=0;entryDy=0;" parent="WIyWlLk6GJQsqaUBKTNV-1" target="kA6EdKfdzq5KEBuTpNMv-0" edge="1">
          <mxGeometry width="50" height="50" relative="1" as="geometry">
            <mxPoint x="840" y="937.5" as="sourcePoint" />
            <mxPoint x="870" y="920" as="targetPoint" />
          </mxGeometry>
        </mxCell>
        <mxCell id="kA6EdKfdzq5KEBuTpNMv-3" value="" style="endArrow=none;html=1;rounded=0;exitX=0;exitY=0.5;exitDx=0;exitDy=0;" parent="WIyWlLk6GJQsqaUBKTNV-1" source="kA6EdKfdzq5KEBuTpNMv-1" edge="1">
          <mxGeometry width="50" height="50" relative="1" as="geometry">
            <mxPoint x="790" y="1021.75" as="sourcePoint" />
            <mxPoint x="840" y="971.75" as="targetPoint" />
          </mxGeometry>
        </mxCell>
        <mxCell id="wbL8B3PAm_5NTPATe7v4-0" value="" style="endArrow=none;html=1;rounded=0;entryX=0.5;entryY=1;entryDx=0;entryDy=0;" parent="WIyWlLk6GJQsqaUBKTNV-1" target="Ak_wFlDR8z4ldmzF6ij--21" edge="1">
          <mxGeometry width="50" height="50" relative="1" as="geometry">
            <mxPoint x="777" y="1050" as="sourcePoint" />
            <mxPoint x="827" y="1000" as="targetPoint" />
          </mxGeometry>
        </mxCell>
        <mxCell id="wbL8B3PAm_5NTPATe7v4-1" value="&lt;div&gt;assignmentDateTime&lt;/div&gt;" style="ellipse;whiteSpace=wrap;html=1;" parent="WIyWlLk6GJQsqaUBKTNV-1" vertex="1">
          <mxGeometry x="870" y="1099" width="90" height="35" as="geometry" />
        </mxCell>
        <mxCell id="wbL8B3PAm_5NTPATe7v4-2" value="" style="endArrow=none;html=1;rounded=0;entryX=0;entryY=0.5;entryDx=0;entryDy=0;exitX=1;exitY=0.5;exitDx=0;exitDy=0;" parent="WIyWlLk6GJQsqaUBKTNV-1" source="Ak_wFlDR8z4ldmzF6ij--22" target="wbL8B3PAm_5NTPATe7v4-1" edge="1">
          <mxGeometry width="50" height="50" relative="1" as="geometry">
            <mxPoint x="800" y="1092.5" as="sourcePoint" />
            <mxPoint x="850" y="1042.5" as="targetPoint" />
          </mxGeometry>
        </mxCell>
        <mxCell id="XQJn0ZVhvnVa97FlS-0A-0" value="isActive" style="ellipse;whiteSpace=wrap;html=1;" parent="WIyWlLk6GJQsqaUBKTNV-1" vertex="1">
          <mxGeometry x="840" y="1390" width="90" height="35" as="geometry" />
        </mxCell>
        <mxCell id="XQJn0ZVhvnVa97FlS-0A-1" value="" style="endArrow=none;html=1;rounded=0;entryX=0.858;entryY=0.85;entryDx=0;entryDy=0;entryPerimeter=0;" parent="WIyWlLk6GJQsqaUBKTNV-1" target="nEtOkZ7gd0ag-XSUoiwr-106" edge="1">
          <mxGeometry width="50" height="50" relative="1" as="geometry">
            <mxPoint x="840" y="1410" as="sourcePoint" />
            <mxPoint x="890" y="1360" as="targetPoint" />
          </mxGeometry>
        </mxCell>
        <mxCell id="haN6WlSXk5iD17Yfk6On-0" value="primaryRelation" style="ellipse;whiteSpace=wrap;html=1;" parent="WIyWlLk6GJQsqaUBKTNV-1" vertex="1">
          <mxGeometry x="630" y="1440" width="90" height="35" as="geometry" />
        </mxCell>
        <mxCell id="haN6WlSXk5iD17Yfk6On-1" value="secondaryRelation" style="ellipse;whiteSpace=wrap;html=1;" parent="WIyWlLk6GJQsqaUBKTNV-1" vertex="1">
          <mxGeometry x="630" y="1480" width="90" height="35" as="geometry" />
        </mxCell>
        <mxCell id="haN6WlSXk5iD17Yfk6On-2" value="" style="endArrow=none;html=1;rounded=0;" parent="WIyWlLk6GJQsqaUBKTNV-1" edge="1">
          <mxGeometry width="50" height="50" relative="1" as="geometry">
            <mxPoint x="720" y="1500" as="sourcePoint" />
            <mxPoint x="740" y="1220" as="targetPoint" />
          </mxGeometry>
        </mxCell>
        <mxCell id="haN6WlSXk5iD17Yfk6On-3" value="" style="endArrow=none;html=1;rounded=0;entryX=0.125;entryY=1.05;entryDx=0;entryDy=0;entryPerimeter=0;" parent="WIyWlLk6GJQsqaUBKTNV-1" target="nEtOkZ7gd0ag-XSUoiwr-106" edge="1">
          <mxGeometry width="50" height="50" relative="1" as="geometry">
            <mxPoint x="720" y="1455" as="sourcePoint" />
            <mxPoint x="770" y="1405" as="targetPoint" />
          </mxGeometry>
        </mxCell>
        <mxCell id="0eveATLbuftQ1NNC0oMD-0" value="&lt;div&gt;relationship_to&lt;/div&gt;&lt;div&gt;_primary&lt;/div&gt;" style="ellipse;whiteSpace=wrap;html=1;" vertex="1" parent="WIyWlLk6GJQsqaUBKTNV-1">
          <mxGeometry x="580" y="1117.5" width="90" height="35" as="geometry" />
        </mxCell>
        <mxCell id="0eveATLbuftQ1NNC0oMD-1" value="" style="endArrow=none;html=1;rounded=0;exitX=1;exitY=0.75;exitDx=0;exitDy=0;" edge="1" parent="WIyWlLk6GJQsqaUBKTNV-1" source="nEtOkZ7gd0ag-XSUoiwr-93">
          <mxGeometry width="50" height="50" relative="1" as="geometry">
            <mxPoint x="530" y="1184" as="sourcePoint" />
            <mxPoint x="580" y="1134" as="targetPoint" />
          </mxGeometry>
        </mxCell>
        <mxCell id="0eveATLbuftQ1NNC0oMD-2" value="&lt;b&gt;&lt;u&gt;start_date&lt;/u&gt;&lt;/b&gt;" style="ellipse;whiteSpace=wrap;html=1;" vertex="1" parent="WIyWlLk6GJQsqaUBKTNV-1">
          <mxGeometry x="32.5" y="880" width="90" height="35" as="geometry" />
        </mxCell>
        <mxCell id="0eveATLbuftQ1NNC0oMD-3" value="end_date" style="ellipse;whiteSpace=wrap;html=1;" vertex="1" parent="WIyWlLk6GJQsqaUBKTNV-1">
          <mxGeometry x="32.5" y="920" width="90" height="35" as="geometry" />
        </mxCell>
        <mxCell id="0eveATLbuftQ1NNC0oMD-4" value="" style="endArrow=none;html=1;rounded=0;entryX=0;entryY=0.5;entryDx=0;entryDy=0;" edge="1" parent="WIyWlLk6GJQsqaUBKTNV-1" target="nEtOkZ7gd0ag-XSUoiwr-81">
          <mxGeometry width="50" height="50" relative="1" as="geometry">
            <mxPoint x="120" y="892.5" as="sourcePoint" />
            <mxPoint x="170" y="842.5" as="targetPoint" />
          </mxGeometry>
        </mxCell>
        <mxCell id="0eveATLbuftQ1NNC0oMD-5" value="" style="endArrow=none;html=1;rounded=0;" edge="1" parent="WIyWlLk6GJQsqaUBKTNV-1">
          <mxGeometry width="50" height="50" relative="1" as="geometry">
            <mxPoint x="120" y="935" as="sourcePoint" />
            <mxPoint x="140" y="910" as="targetPoint" />
          </mxGeometry>
        </mxCell>
      </root>
    </mxGraphModel>
  </diagram>
</mxfile>
